<svg viewBox="0 0 88 88" style="background-color:#ffffff00" xmlns="http://www.w3.org/2000/svg" width="88" height="88"><path d="M64.731 9.963c-9.365 0-16.984 7.56-16.984 16.852v1.826l-4.666-4.63a1.563 1.563 0 0 0-2.198 0 1.534 1.534 0 0 0 0 2.18l7.427 7.37a1.56 1.56 0 0 0 2.198 0l7.427-7.37a1.532 1.532 0 0 0 0-2.18 1.563 1.563 0 0 0-2.198 0l-4.88 4.843v-2.039c0-7.591 6.223-13.767 13.874-13.767.858 0 1.555-.69 1.555-1.542a1.55 1.55 0 0 0-1.555-1.543z" fill="#ff4a68"/><path d="M30.663 66.768h-6.57c-.86 0-1.554.69-1.554 1.542 0 .851.695 1.541 1.554 1.541h6.57c.858 0 1.554-.69 1.554-1.541 0-.853-.696-1.542-1.554-1.542zm0-5.927h-6.57c-.86 0-1.554.69-1.554 1.543 0 .851.695 1.54 1.554 1.54h6.57c.858 0 1.554-.689 1.554-1.54 0-.853-.696-1.543-1.554-1.543z" fill="#fff"/><path d="M76.503 51.36h-.984v-7.706c0-3.21-2.26-5.9-5.281-6.603v-3.406c0-3.742-3.068-6.786-6.84-6.786-.858 0-1.553.69-1.553 1.542 0 .851.695 1.541 1.553 1.541 2.058 0 3.732 1.662 3.732 3.703v3.222l-46.285.035c-1.933 0-3.507-1.561-3.507-3.48 0-1.918 1.574-3.48 3.507-3.48H35.89c.859 0 1.554-.69 1.554-1.541 0-.852-.695-1.542-1.554-1.542H20.845c-7.07 0-8.753 5.651-8.859 8.56v33.12c0 5.789 4.747 10.498 10.582 10.498h46.111c3.772 0 6.84-3.045 6.84-6.787v-8.325h.984c.86 0 1.554-.69 1.554-1.541v-9.482c0-.853-.695-1.542-1.554-1.542zm-4.092 20.89c0 2.042-1.674 3.702-3.732 3.702H22.568c-4.121 0-7.473-3.325-7.473-7.414l-.001-31.885a6.625 6.625 0 0 0 5.751 3.332h47.84c.075 0 .148-.011.22-.022 1.954.117 3.506 1.725 3.506 3.69v7.707h-9.346c-3.492 0-6.332 2.819-6.332 6.283 0 3.463 2.84 6.282 6.332 6.282h9.346v8.325zm2.539-11.409H63.065c-1.778 0-3.224-1.435-3.224-3.198 0-1.765 1.446-3.2 3.224-3.2H74.95v6.398z" fill="#fff"/></svg>