<svg viewBox="0 0 68 14" style="background-color:#ffffff00" xmlns="http://www.w3.org/2000/svg" width="68" height="14"><g fill="#bbbbba"><path d="M56.89 8.678H11.03v-3h45.86v3z"/><path d="M6.5 13.678a6.508 6.508 0 0 1-6.5-6.5c0-3.584 2.916-6.5 6.5-6.5s6.5 2.916 6.5 6.5-2.916 6.5-6.5 6.5zm0-10c-1.93 0-3.5 1.57-3.5 3.5s1.57 3.5 3.5 3.5 3.5-1.57 3.5-3.5-1.57-3.5-3.5-3.5zm55 10a6.508 6.508 0 0 1-6.5-6.5c0-3.584 2.916-6.5 6.5-6.5s6.5 2.916 6.5 6.5-2.916 6.5-6.5 6.5zm0-10c-1.93 0-3.5 1.57-3.5 3.5s1.57 3.5 3.5 3.5 3.5-1.57 3.5-3.5-1.57-3.5-3.5-3.5z"/></g></svg>