<svg viewBox="0 0 88 88" style="background-color:#ffffff00" xmlns="http://www.w3.org/2000/svg" width="88" height="88"><path d="M31.428 38.542c.528.005 1.022.16 1.457.408a7.58 7.58 0 0 0 1.567-4.61c0-.852-.696-1.542-1.554-1.542-.86 0-1.555.69-1.555 1.542 0 1.81-1.064 3.374-2.601 4.12.895.037 1.79.075 2.686.082zm46.684 3.473c-4.266 0-7.736-3.444-7.736-7.675 0-.852.696-1.543 1.554-1.543.86 0 1.555.69 1.555 1.543 0 2.53 2.075 4.59 4.627 4.59.857 0 1.554.69 1.554 1.542a1.55 1.55 0 0 1-1.554 1.543zm-5.584 20.906c-.858 0-1.555-.69-1.555-1.542 0-4.232 3.47-7.675 7.736-7.675.858 0 1.554.69 1.554 1.542 0 .852-.696 1.542-1.554 1.542-2.552 0-4.627 2.06-4.627 4.59 0 .853-.696 1.543-1.554 1.543z" fill="#ff4a68"/><path d="M73.99 64.836h-.463v-3.084h.462c2.435 0 4.416-1.965 4.416-4.381V38.744c0-2.415-1.981-4.381-4.416-4.381H30.84c-2.434 0-4.416 1.966-4.416 4.381v.83h-3.108v-.83c0-4.117 3.375-7.466 7.524-7.466h43.15c4.15 0 7.524 3.35 7.524 7.466v18.627c0 4.116-3.375 7.465-7.524 7.465z" fill="#fff"/><path d="M24.112 45.95c.31 0 .592.042.852.113a7.603 7.603 0 0 0 1.937-5.064c0-.851-.696-1.541-1.555-1.541-.858 0-1.554.69-1.554 1.541 0 2.532-2.075 4.591-4.626 4.591-.377 0-.718.138-.987.36h5.933zm46.448 2.725c-4.265 0-7.735-3.444-7.735-7.675 0-.852.696-1.543 1.554-1.543.859 0 1.555.69 1.555 1.543 0 2.53 2.075 4.59 4.626 4.59.858 0 1.555.69 1.555 1.542a1.55 1.55 0 0 1-1.555 1.543zm-5.583 20.906c-.859 0-1.555-.69-1.555-1.542 0-4.232 3.47-7.675 7.736-7.675.858 0 1.554.69 1.554 1.542 0 .852-.696 1.542-1.554 1.542-2.552 0-4.627 2.06-4.627 4.59 0 .853-.696 1.543-1.554 1.543z" fill="#ff4a68"/><path d="M66.438 71.496h-.463v-3.085h.463c2.435 0 4.416-1.965 4.416-4.381V45.404c0-2.416-1.981-4.381-4.416-4.381h-43.15c-2.435 0-4.416 1.965-4.416 4.381v.83h-3.108v-.83c0-4.117 3.375-7.466 7.524-7.466h43.15c4.148 0 7.525 3.35 7.525 7.466V64.03c0 4.117-3.376 7.466-7.525 7.466z" fill="#fff"/><path d="M11.335 55.612c-.859 0-1.555-.69-1.555-1.543 0-.851.696-1.542 1.555-1.542 2.55 0 4.626-2.06 4.626-4.59 0-.852.696-1.543 1.555-1.543.858 0 1.554.69 1.554 1.543 0 4.231-3.47 7.675-7.735 7.675zm51.395 0c-4.265 0-7.736-3.444-7.736-7.675 0-.852.696-1.543 1.554-1.543.859 0 1.555.69 1.555 1.543 0 2.53 2.075 4.59 4.626 4.59.858 0 1.555.69 1.555 1.542a1.55 1.55 0 0 1-1.555 1.543zM17.516 77.11c-.859 0-1.555-.69-1.555-1.541 0-2.532-2.075-4.591-4.627-4.591-.858 0-1.554-.69-1.554-1.542 0-.852.696-1.543 1.554-1.543 4.266 0 7.736 3.444 7.736 7.676 0 .851-.696 1.542-1.554 1.542zm39.63-.592c-.858 0-1.555-.69-1.555-1.542 0-4.232 3.47-7.675 7.736-7.675.858 0 1.554.69 1.554 1.542 0 .852-.696 1.542-1.554 1.542-2.552 0-4.627 2.06-4.627 4.59 0 .853-.696 1.543-1.554 1.543z" fill="#ff4a68"/><path d="M58.512 78.433h-42.96c-4.201 0-7.62-3.391-7.62-7.56V52.435c0-4.168 3.418-7.56 7.62-7.56h42.96c4.202 0 7.62 3.392 7.62 7.56v18.438c0 4.169-3.418 7.56-7.62 7.56zM15.552 47.96c-2.487 0-4.511 2.008-4.511 4.475v18.438c0 2.468 2.024 4.476 4.51 4.476h42.961c2.487 0 4.51-2.008 4.51-4.476V52.435c0-2.467-2.023-4.475-4.51-4.475h-42.96z" fill="#fff"/><path d="M37.032 71.711c-5.589 0-10.136-4.511-10.136-10.057 0-5.545 4.547-10.057 10.136-10.057 5.589 0 10.136 4.512 10.136 10.057 0 5.546-4.547 10.057-10.136 10.057zm0-17.03c-3.874 0-7.028 3.129-7.028 6.973 0 3.845 3.154 6.973 7.028 6.973 3.874 0 7.028-3.128 7.028-6.973 0-3.844-3.154-6.972-7.028-6.972z" fill="#ff4a68"/></svg>