<svg viewBox="0 0 88 88" style="background-color:#ffffff00" xmlns="http://www.w3.org/2000/svg" width="88" height="88"><g fill="#fff"><path d="M16.07 50.45h5.332v-5.365H16.07v5.365zm18.281 0H21.402v5.366h18.281v5.365h5.332V39.72h-5.332v5.364h-5.332v5.365zm10.664-22.912h5.202v-6.212h-5.332v3.832h-5.202v9.661h5.332v-7.281zm5.205 50.504h10.272v-5.365H50.22v5.365z"/><path d="M15.309 72.665c0 2.97 2.392 5.377 5.344 5.377h15.222V57.348H15.309v15.317zm3.808-11.484h12.95v13.03H21.682a2.573 2.573 0 0 1-2.566-2.582V61.18z"/><path d="M22.925 70.378h5.333v-5.365h-5.332v5.365zm40.551 7.664h8.227c1.595 0 2.889-1.3 2.889-2.905v-8.28H63.476v11.185zm-5.332-19.08h5.332v-5.365h-5.332v5.365zm10.355 1.725h5.332V48.918h-5.332v11.77z"/><path d="M55.549 51.217h12.949v-5.365H50.217V63.48h-5.332v9.197h-5.202v5.365h5.332V74.21h5.202v-7.09h5.332V51.218zm13.699-29.891H54.025V42.02h20.567V26.703c0-2.97-2.393-5.377-5.344-5.377zm1.535 16.861H57.834v-13.03h10.383a2.573 2.573 0 0 1 2.566 2.582v10.448z"/><path d="M61.642 34.355h5.332V28.99h-5.332v5.365zM35.875 21.326H20.653c-2.952 0-5.344 2.407-5.344 5.377V42.02h20.566V21.326zm-3.809 16.861H19.117V27.74a2.573 2.573 0 0 1 2.566-2.581h10.383v13.03z"/><path d="M22.925 34.355h5.333V28.99h-5.332v5.365z"/></g></svg>