<svg viewBox="0 0 88 88" style="background-color:#ffffff00" xmlns="http://www.w3.org/2000/svg" width="88" height="88"><path d="M73.2 15.82l-7.428-7.369a1.564 1.564 0 0 0-2.197 0 1.534 1.534 0 0 0 0 2.181l4.665 4.63H66.4c-9.364 0-16.982 7.559-16.982 16.85 0 .852.695 1.543 1.553 1.543.859 0 1.555-.69 1.555-1.543 0-7.59 6.224-13.766 13.875-13.766h2.056l-4.882 4.843a1.533 1.533 0 0 0 0 2.18c.303.302.701.453 1.099.453.397 0 .795-.151 1.098-.453l7.427-7.368a1.533 1.533 0 0 0 0-2.18z" fill="#ff4a68"/><path d="M30.85 67.978h-6.57c-.86 0-1.555.69-1.555 1.541 0 .852.696 1.542 1.555 1.542h6.57c.858 0 1.554-.69 1.554-1.542 0-.852-.696-1.541-1.554-1.541zm0-5.927h-6.57c-.86 0-1.555.69-1.555 1.542 0 .852.696 1.542 1.555 1.542h6.57c.858 0 1.554-.69 1.554-1.542 0-.852-.696-1.542-1.554-1.542z"/><path d="M75.136 62.051H63.252c-1.778 0-3.225-1.435-3.225-3.199 0-1.764 1.447-3.199 3.225-3.199h11.884v6.398zm-2.539 11.41c0 2.041-1.673 3.701-3.73 3.701H22.754c-4.12 0-7.473-3.326-7.473-7.414l-.001-31.885a6.625 6.625 0 0 0 5.75 3.332h47.84c.076 0 .15-.012.222-.022 1.952.117 3.504 1.725 3.504 3.69v7.707h-9.345c-3.492 0-6.332 2.818-6.332 6.282 0 3.465 2.84 6.283 6.332 6.283h9.345v8.325zM76.69 52.57h-.984v-7.707c0-3.21-2.26-5.899-5.281-6.602v-3.406c0-3.742-3.068-6.786-6.84-6.786-.858 0-1.554.69-1.554 1.542 0 .851.696 1.541 1.554 1.541 2.058 0 3.732 1.661 3.732 3.703v3.222l-46.285.035c-1.933 0-3.507-1.561-3.507-3.48 0-1.918 1.574-3.48 3.507-3.48h20.42c.858 0 1.553-.69 1.553-1.541 0-.853-.695-1.542-1.553-1.542h-20.42c-7.07 0-8.754 5.65-8.859 8.56v33.12c0 5.788 4.747 10.498 10.582 10.498h46.111c3.772 0 6.84-3.045 6.84-6.787v-8.325h.984c.859 0 1.554-.69 1.554-1.542v-9.482c0-.851-.695-1.541-1.554-1.541z"/></svg>