<svg viewBox="0 0 12 15" style="background-color:#ffffff00" xmlns="http://www.w3.org/2000/svg" width="12" height="15"><path d="M.995 1.563C.5 2.158-.635 4.77 2.946 9.78c3.774 5.278 6.425 4.575 6.964 4.026L7.378 10.36c-.451.442-.68-.239-1.577-1.218a14.562 14.562 0 0 1-1.822-2.48c-.392-.678-.858-1.106-.385-1.57L.995 1.563zm10.33 10.864a.579.579 0 0 0 .077-.736v-.003L9.425 9c-.156-.213-.442-.222-.639-.03l-.916.898 2.539 3.456.915-.895.001-.003zM4.891 3.67a.579.579 0 0 0 .077-.736v-.003L2.935.167c-.157-.213-.442-.222-.64-.03l-.916.898 2.596 3.533.916-.895v-.002z" fill="#ff4b68"/></svg>