<svg viewBox="0 0 12 13" style="background-color:#ffffff00" xmlns="http://www.w3.org/2000/svg" width="12" height="13"><path d="M11.5 11.977c0 .625-.19.118-.57.48-.38.362-.886.543-1.516.543H2.586c-.63 0-1.135-.181-1.516-.543-.38-.362-.57.145-.57-.48 0-.276.01-.546.027-.809.019-.263.055-.547.11-.852.054-.304.123-.587.207-.847.083-.26.195-.514.336-.762.14-.247.302-.458.484-.633a2.04 2.04 0 0 1 .668-.418c.263-.104.553-.156.871-.156.047 0 .156.056.328.168l.582.375a3.7 3.7 0 0 0 .844.375c.346.112.694.168 1.043.168s.697-.056 1.043-.168a3.72 3.72 0 0 0 .844-.375l.582-.375c.172-.112.281-.168.328-.168.318 0 .608.052.871.156.263.104.486.244.668.418.182.175.344.386.484.633s.253.501.336.762c.083.26.153.543.207.847.055.305.091.589.11.852.018.263.027.533.027.809zM9 3.582a2.89 2.89 0 0 1-.879 2.121A2.89 2.89 0 0 1 6 6.583a2.89 2.89 0 0 1-2.121-.88A2.89 2.89 0 0 1 3 3.583c0-.829.293-1.536.879-2.122A2.89 2.89 0 0 1 6 .582a2.89 2.89 0 0 1 2.121.88A2.89 2.89 0 0 1 9 3.581z" fill="#ff4b68"/></svg>