<svg viewBox="0 0 168 60" style="background-color:#ffffff00" xmlns="http://www.w3.org/2000/svg" width="168" height="60"><path d="M18.018 26.095H7.75V7.965h10.268c4.934 0 8.954 4.067 8.954 9.065 0 5.002-4.02 9.065-8.954 9.065zM17.805.115H.775A.777.777 0 0 0 0 .9v47.404a.78.78 0 0 0 .774.784h6.202a.782.782 0 0 0 .774-.784V33.95h10.268c9.264 0 16.788-7.682 16.699-17.087C34.632 7.552 27 .116 17.805.116zM126.354 5.5h-6.2a.896.896 0 0 0-.889.9v47.403c0 .496.399.9.889.9h6.2c.49 0 .889-.404.889-.9V6.4c0-.496-.399-.9-.89-.9zm-72.309 8.54c-5.637-.06-10.96 2.929-13.88 7.79a.74.74 0 0 0 .227.985l5.476 3.642c.167.11.374.148.566.1a.695.695 0 0 0 .446-.334c1.584-2.789 4.652-4.382 7.817-4.06 4.133.419 7.249 3.969 7.249 8.26v1.188l-1.219-.584a15.803 15.803 0 0 0-6.688-1.559h-.158c-4.186 0-8.153 1.67-11.185 4.71a16.566 16.566 0 0 0-4.868 11.769v2.356c0 .495.4.9.89.9h6.196c.49 0 .89-.405.89-.9v-2.576c0-4.432 3.558-8.099 7.933-8.175 2.14-.047 4.167.793 5.722 2.34a8.496 8.496 0 0 1 2.487 5.983v2.427c0 .496.398.9.889.9h6.203c.49 0 .889-.404.889-.9V30.506c0-8.985-7.125-16.372-15.882-16.466zm54.932 1.456a.75.75 0 0 0-.07-.063l-.024-.02a.866.866 0 0 0-.547-.196h-6.196a.88.88 0 0 0-.684.33.93.93 0 0 0-.145.246l-.009.029a.882.882 0 0 0-.05.248l-.006.04c-.034.443-.002 5.98 0 6.215 0 5.51-.843 7.482-2.3 9.026-1.516 1.604-3.622 2.526-5.776 2.53-2.156-.004-4.261-.926-5.778-2.53-1.456-1.544-2.3-3.515-2.3-9.025.002-.236.035-5.773 0-6.216-.063-.9-.853-.896-1.426-.891h-5.127c-.409 0-.912-.003-1.201.288-.146.148-.22.353-.22.61-.002.427-.043 10.448.223 12.071.847 5.159 4.244 9.802 8.863 12.119a15.543 15.543 0 0 0 6.936 1.631h.058c2.41 0 4.808-.564 6.936-1.632.349-.174.715-.38 1.114-.624v3.908c0 4.424-3.344 8.078-7.615 8.318-3.293.198-6.43-1.729-7.799-4.774a.887.887 0 0 0-1.15-.454l-5.72 2.425a.893.893 0 0 0-.484.498.892.892 0 0 0 .012.688C81.049 56.204 86.802 60 93.18 60l.171-.001c8.751-.09 15.871-7.472 15.871-16.456V16.12a.867.867 0 0 0-.034-.236.731.731 0 0 0-.212-.388zm58.776 0a.843.843 0 0 0-.069-.063l-.024-.02a.866.866 0 0 0-.547-.196h-6.196a.88.88 0 0 0-.685.33.909.909 0 0 0-.145.246l-.008.029a.897.897 0 0 0-.05.248l-.007.04c-.034.443-.001 5.98 0 6.215 0 5.51-.843 7.482-2.298 9.026-1.517 1.604-3.623 2.526-5.778 2.53-2.155-.004-4.26-.926-5.778-2.53-1.456-1.544-2.299-3.515-2.299-9.025.002-.236.034-5.773 0-6.216-.064-.9-.853-.896-1.427-.891h-5.127c-.408 0-.912-.003-1.2.288-.147.148-.22.353-.22.61-.002.427-.044 10.448.223 12.071.846 5.159 4.243 9.802 8.863 12.119a15.54 15.54 0 0 0 6.936 1.631h.058c2.41 0 4.807-.564 6.935-1.632.35-.174.716-.38 1.115-.624v3.908c0 4.424-3.345 8.078-7.614 8.318-3.294.198-6.431-1.729-7.8-4.774a.886.886 0 0 0-1.15-.454l-5.72 2.425a.894.894 0 0 0-.484.498.895.895 0 0 0 .011.688c2.558 5.913 8.31 9.709 14.69 9.709l.171-.001C160.88 59.909 168 52.527 168 43.543V16.12a.909.909 0 0 0-.034-.236.732.732 0 0 0-.213-.388z"/></svg>