<svg viewBox="0 0 115 41" style="background-color:#ffffff00" xmlns="http://www.w3.org/2000/svg" width="115" height="41"><path d="M12.334 17.787h-7.03V5.375h7.03c3.377 0 6.129 2.784 6.129 6.206 0 3.424-2.752 6.206-6.13 6.206zM12.188 0H.53C.236 0 0 .24 0 .537v32.455c0 .295.236.537.53.537h4.245c.291 0 .53-.242.53-.537v-9.828h7.029c6.34 0 11.491-5.26 11.43-11.699C23.706 5.091 18.483 0 12.188 0zm74.304 3.687h-4.244a.613.613 0 0 0-.608.616v32.454c0 .34.273.617.608.617h4.244a.613.613 0 0 0 .609-.617V4.303a.613.613 0 0 0-.609-.616zM36.995 9.533c-3.858-.041-7.503 2.006-9.5 5.334a.507.507 0 0 0 .154.674l3.75 2.494a.49.49 0 0 0 .386.069.475.475 0 0 0 .306-.23 5.518 5.518 0 0 1 5.35-2.778c2.83.285 4.962 2.716 4.962 5.654v.814l-.834-.4a10.802 10.802 0 0 0-4.578-1.067l-.108-.001c-2.865 0-5.58 1.143-7.656 3.224a11.343 11.343 0 0 0-3.333 8.058v1.613c0 .34.273.616.609.616h4.242a.613.613 0 0 0 .608-.616v-1.763c0-3.035 2.437-5.545 5.431-5.597 1.466-.032 2.853.543 3.917 1.601a5.818 5.818 0 0 1 1.702 4.097v1.662c0 .34.273.616.609.616h4.246a.613.613 0 0 0 .609-.616V20.806c0-6.152-4.877-11.209-10.872-11.273zm37.602.997a.461.461 0 0 0-.047-.043l-.017-.013a.592.592 0 0 0-.374-.135h-4.242a.603.603 0 0 0-.493.257.636.636 0 0 0-.074.138l-.006.019a.609.609 0 0 0-.034.17l-.005.027c-.023.304-.001 4.095 0 4.256 0 3.773-.577 5.122-1.574 6.179-1.038 1.098-2.48 1.73-3.954 1.733-1.476-.003-2.917-.635-3.955-1.733-.997-1.057-1.574-2.407-1.574-6.179.001-.161.023-3.953 0-4.255-.044-.616-.584-.614-.977-.61h-3.51c-.28 0-.624-.003-.822.197a.57.57 0 0 0-.15.418c-.001.291-.03 7.152.153 8.264.58 3.532 2.905 6.71 6.067 8.297a10.637 10.637 0 0 0 4.748 1.117h.04c1.649 0 3.29-.386 4.747-1.117.239-.12.49-.26.763-.428v2.676c0 3.029-2.29 5.53-5.213 5.695-2.254.135-4.402-1.184-5.338-3.269a.607.607 0 0 0-.788-.311l-3.915 1.66a.615.615 0 0 0-.324.813C55.48 38.4 59.418 41 63.785 41l.117-.001c5.99-.062 10.864-5.116 10.864-11.267V10.958a.623.623 0 0 0-.023-.162.5.5 0 0 0-.146-.266zm40.234 0c-.011-.012-.024-.023-.047-.043l-.017-.013a.592.592 0 0 0-.374-.135h-4.241a.603.603 0 0 0-.494.257.623.623 0 0 0-.074.138l-.006.019a.616.616 0 0 0-.034.17l-.005.027c-.023.304-.001 4.095 0 4.256 0 3.773-.577 5.122-1.573 6.179-1.039 1.098-2.48 1.73-3.955 1.733-1.476-.003-2.917-.635-3.955-1.733-.997-1.057-1.574-2.407-1.574-6.179.001-.161.023-3.953 0-4.255-.044-.616-.584-.614-.977-.61h-3.51c-.28 0-.624-.003-.822.197a.57.57 0 0 0-.15.418c-.001.291-.03 7.152.153 8.264.58 3.532 2.905 6.71 6.067 8.297a10.636 10.636 0 0 0 4.748 1.117h.04c1.649 0 3.29-.386 4.747-1.117.239-.12.49-.26.763-.428v2.676c0 3.029-2.29 5.53-5.212 5.695-2.255.135-4.402-1.184-5.34-3.269a.607.607 0 0 0-.787-.311l-3.915 1.66a.616.616 0 0 0-.324.813C95.714 38.4 99.652 41 104.02 41l.117-.001c5.99-.062 10.864-5.116 10.864-11.267V10.958a.623.623 0 0 0-.023-.162.502.502 0 0 0-.146-.266z"/></svg>