<?xml version="1.0" standalone="no"?>
<!DOCTYPE svg PUBLIC "-//W3C//DTD SVG 20010904//EN"
 "http://www.w3.org/TR/2001/REC-SVG-20010904/DTD/svg10.dtd">
<svg version="1.0" xmlns="http://www.w3.org/2000/svg"
 width="700.000000pt" height="700.000000pt" viewBox="0 0 700.000000 700.000000"
 preserveAspectRatio="xMidYMid meet">
<metadata>
Created by potrace 1.11, written by Peter Selinger 2001-2013
</metadata>
<g transform="translate(0.000000,700.000000) scale(0.100000,-0.100000)"
fill="#000000" stroke="none">
<path d="M3265 6950 c-1125 -82 -2118 -679 -2717 -1635 -211 -337 -378 -758
-457 -1155 -54 -268 -76 -700 -52 -980 118 -1328 997 -2485 2241 -2948 409
-152 771 -217 1220 -216 555 0 1041 112 1535 354 903 443 1584 1283 1829 2259
68 271 95 471 102 766 12 456 -51 856 -201 1270 -419 1158 -1433 2017 -2640
2235 -260 47 -616 68 -860 50z m-480 -1782 l23 -27 5 -428 c5 -459 11 -529 62
-690 30 -95 69 -159 143 -236 149 -154 330 -225 545 -215 182 9 341 82 469
214 74 78 113 142 143 237 51 161 57 231 62 690 l5 428 23 27 23 27 300 3 300
3 28 -25 29 -24 3 -1199 c3 -1418 1 -1459 -80 -1698 -167 -492 -591 -858
-1099 -951 -130 -24 -374 -24 -494 0 -452 89 -814 359 -1016 758 -43 86 -48
116 -21 147 21 25 532 241 571 241 33 0 57 -25 101 -105 47 -85 187 -221 275
-267 125 -65 202 -83 350 -83 115 1 139 4 210 29 217 75 389 251 463 474 24
72 26 93 30 315 2 130 2 237 0 237 -3 0 -52 -22 -109 -49 -210 -99 -369 -134
-604 -134 -230 0 -398 37 -601 132 -388 184 -682 556 -789 1001 -18 74 -38
682 -33 976 3 151 5 174 22 192 10 12 28 23 40 25 11 3 151 4 309 3 l289 -1
23 -27z"/>
</g>
</svg>
